# xmcd
#
# Track frame offsets: 
#        150
#        24588
#        48449
#        65318
#        92418
#        110615
#        130102
#        151606
#        171041
#        189324
#        210807
#
# Disc length: 3089 seconds
#
# Revision: 0
# Processed by: cddbd v1.5.2PL0 Copyright (c) Steve Scherf et al.
# Submitted via: ExactAudioCopy v1.0b4
#
DISCID=7c0c0f0b
DTITLE=Rory Block - Avalon
DYEAR=2013
DGENRE=Blues, Country Blues
TTITLE0=Everybody Loves John
TTITLE1=Avalon
TTITLE2=Candy Man
TTITLE3=Frankie and Albert
TTITLE4=Got the Blues Can't Be Satisfied
TTITLE5=Louis Collins
TTITLE6=Richland Woman Blues
TTITLE7=Spike Driver Blues
TTITLE8=Stagolee
TTITLE9=Make Me a Pallet on Your Floor
TTITLE10=Pay Day
EXTD=
EXTT0=
EXTT1=
EXTT2=
EXTT3=
EXTT4=
EXTT5=
EXTT6=
EXTT7=
EXTT8=
EXTT9=
EXTT10=
PLAYORDER=
